<svg viewBox="0 0 44 44" fill="none" xmlns="http://www.w3.org/2000/svg">
<circle cx="22" cy="22" r="21.5" stroke="#999999"/>
<g clip-path="url(#clip0)">
<path d="M34.4877 29.9535C34.4662 29.9363 33.5166 28.9137 32.8592 27.5945C34.0408 26.4301 34.7498 24.9691 34.7498 23.375C34.7498 19.9375 31.4627 17.0973 27.1787 16.5902C25.8295 14.1152 22.6455 12.375 18.9373 12.375C14.0002 12.375 9.9998 15.4516 9.9998 19.25C9.9998 20.8398 10.7088 22.3008 11.8904 23.4695C11.233 24.7887 10.2877 25.8113 10.2705 25.8285C9.9998 26.1164 9.92246 26.5375 10.0814 26.9027C10.2361 27.268 10.5971 27.5043 10.9924 27.5043C13.2912 27.5043 15.1475 26.6363 16.3721 25.8371C16.7631 25.9273 17.1627 25.9961 17.5752 26.0434C18.9287 28.5141 22.1084 30.2543 25.8166 30.2543C26.7103 30.2543 27.5697 30.1512 28.3861 29.9621C29.6107 30.757 31.4627 31.6293 33.7658 31.6293C34.1611 31.6293 34.5178 31.393 34.6768 31.0277C34.8314 30.6625 34.7584 30.2414 34.4877 29.9535ZM16.6771 24.4922L16.11 24.3633L15.6201 24.6813C14.7564 25.2441 13.4502 25.893 11.8518 26.0777C12.2299 25.5922 12.7197 24.8918 13.1193 24.084L13.5662 23.1902L12.8572 22.4898C12.1783 21.8238 11.3748 20.7195 11.3748 19.25C11.3748 16.2164 14.7693 13.75 18.9373 13.75C23.1053 13.75 26.4998 16.2164 26.4998 19.25C26.4998 22.2836 23.1053 24.75 18.9373 24.75C18.1768 24.75 17.4162 24.6641 16.6771 24.4922ZM29.1295 28.8063L28.6396 28.4883L28.0725 28.6215C27.3334 28.7934 26.5728 28.8793 25.8123 28.8793C23.015 28.8793 20.5701 27.7664 19.2639 26.1164C24.0463 25.9789 27.8748 22.9625 27.8748 19.25C27.8748 18.8418 27.8189 18.4465 27.733 18.0598C30.9728 18.6828 33.3748 20.827 33.3748 23.375C33.3748 24.8445 32.5713 25.9488 31.8924 26.6148L31.1834 27.3152L31.626 28.2047C32.0299 29.0168 32.5197 29.7172 32.8935 30.1984C31.2994 30.018 29.9932 29.3648 29.1295 28.8063Z" fill="white"/>
</g>
<defs>
<clipPath id="clip0">
<rect x="10" y="11" width="24.75" height="22" fill="white"/>
</clipPath>
</defs>
</svg>
