<svg viewBox="0 0 44 44" fill="none" xmlns="http://www.w3.org/2000/svg">
<circle cx="22" cy="22" r="21.5" stroke="#999999"/>
<path d="M23.697 21.9999L28.825 17.0144L29.8825 15.9863C30.0385 15.8346 30.0385 15.5881 29.8825 15.4365L28.751 14.3364C28.595 14.1847 28.3415 14.1847 28.1855 14.3364L22 20.3501L15.8145 14.3359C15.6585 14.1843 15.405 14.1843 15.249 14.3359L14.117 15.436C13.961 15.5877 13.961 15.8341 14.117 15.9858L20.303 21.9999L14.117 28.0136C13.961 28.1653 13.961 28.4118 14.117 28.5634L15.2485 29.6635C15.4045 29.8152 15.658 29.8152 15.814 29.6635L22 23.6498L27.128 28.6354L28.1855 29.6635C28.3415 29.8152 28.595 29.8152 28.751 29.6635L29.8825 28.5634C30.0385 28.4118 30.0385 28.1653 29.8825 28.0136L23.697 21.9999Z" fill="white"/>
</svg>
