<svg viewBox="0 0 25 25" fill="none" xmlns="http://www.w3.org/2000/svg">
<path d="M2.4933 22.7592C1.9413 22.7592 1.4925 22.3104 1.4925 21.7584V2.24403C1.4925 1.69203 1.9413 1.24323 2.4933 1.24323H18.0021C18.5565 1.24323 19.0029 1.69203 19.0029 2.24403V11.7768C19.3413 11.8008 19.6749 11.844 20.0037 11.916V2.24403C20.0037 1.14003 19.1085 0.242432 18.0021 0.242432H2.4933C1.3869 0.242432 0.491699 1.13763 0.491699 2.24403V21.7584C0.491699 22.8648 1.3869 23.76 2.4933 23.76H13.6077C13.2933 23.4552 13.0101 23.1192 12.7629 22.7592H2.4933Z" fill="#999999"/>
<path d="M11.4728 15.0056H5V14.0048H11.9504C11.7632 14.324 11.6072 14.6576 11.4728 15.0056Z" fill="#999999"/>
<path d="M5.0024 8H14.0072V9.0008H5.0024V8Z" fill="#999999"/>
<path d="M14.0072 11.0024V11.7632C13.8968 11.8376 13.7912 11.9192 13.688 12.0032H5.0024V11.0024H14.0072Z" fill="#999999"/>
<path d="M5.0024 5H14.0072V5.9984H5.0024V5Z" fill="#999999"/>
<path d="M23.8087 19.6588L18.4756 14.3257L13.1424 19.6588L18.4756 24.992L23.8087 19.6588Z" fill="#EC7D00"/>
<path d="M19.7307 16.9149C19.7307 19.0497 18.0002 20.7803 15.8654 20.7803C13.7306 20.7803 12 19.0497 12 16.9149C12 14.7801 13.7306 13.0496 15.8654 13.0496C18.0002 13.0496 19.7307 14.7801 19.7307 16.9149V16.9149Z" fill="#EC7D00"/>
<path d="M25.0003 16.8654C25.0003 19.0002 23.2697 20.7307 21.1349 20.7307C19.0001 20.7307 17.2695 19.0002 17.2695 16.8654C17.2695 14.7306 19.0001 13 21.1349 13C23.2697 13 25.0003 14.7306 25.0003 16.8654V16.8654Z" fill="#EC7D00"/>
</svg>
