<svg viewBox="0 0 44 44" fill="none" xmlns="http://www.w3.org/2000/svg">
<circle cx="22" cy="22" r="21.5" stroke="#999999"/>
<g clip-path="url(#clip0)">
<path d="M31.6704 12.9391C29.1157 10.7641 25.2954 11.125 22.9235 13.5719L22.0001 14.5281L21.0767 13.5766C19.1642 11.5985 15.3063 10.4078 12.3298 12.9391C9.38602 15.4516 9.23134 19.961 11.8657 22.6797L20.936 32.0453C21.2267 32.3453 21.611 32.5 21.9954 32.5C22.3798 32.5 22.7642 32.35 23.0548 32.0453L32.1251 22.6797C34.7688 19.961 34.6142 15.4516 31.6704 12.9391ZM31.0563 21.6391L22.0188 31.0047L12.9438 21.6391C11.1438 19.7828 10.7688 16.2438 13.3048 14.0828C15.8735 11.8891 18.8923 13.4781 19.9985 14.6219L22.0001 16.6891L24.0017 14.6219C25.0892 13.4969 28.136 11.9031 30.6954 14.0828C33.2267 16.2391 32.8563 19.7781 31.0563 21.6391Z" fill="white"/>
</g>
<defs>
<clipPath id="clip0">
<rect x="10" y="10" width="24" height="24" fill="white"/>
</clipPath>
</defs>
</svg>
