<svg viewBox="0 0 44 44" fill="none" xmlns="http://www.w3.org/2000/svg">
<circle cx="22" cy="22" r="21.5" stroke="#999999"/>
<path d="M22 23.3333C22.6483 23.3333 23.2701 23.0524 23.7285 22.5523C24.1869 22.0522 24.4444 21.3739 24.4444 20.6667C24.4444 19.9594 24.1869 19.2811 23.7285 18.781C23.2701 18.281 22.6483 18 22 18C21.9618 18 21.9282 18.01 21.8911 18.0121C22.0089 18.366 22.0318 18.7492 21.9569 19.1167C21.8821 19.4842 21.7127 19.8209 21.4687 20.0871C21.2247 20.3533 20.9161 20.5381 20.5792 20.6197C20.2423 20.7013 19.891 20.6764 19.5666 20.5479C19.5666 20.5896 19.5556 20.6263 19.5556 20.6667C19.5556 21.0169 19.6188 21.3636 19.7416 21.6872C19.8645 22.0107 20.0445 22.3047 20.2715 22.5523C20.7299 23.0524 21.3517 23.3333 22 23.3333ZM32.8671 21.3917C30.7958 16.9829 26.6953 14 22 14C17.3047 14 13.203 16.985 11.1329 21.3921C11.0455 21.5806 11 21.7889 11 22.0002C11 22.2115 11.0455 22.4198 11.1329 22.6083C13.2042 27.0171 17.3047 30 22 30C26.6953 30 30.797 27.015 32.8671 22.6079C32.9545 22.4194 33 22.2111 33 21.9998C33 21.7885 32.9545 21.5802 32.8671 21.3917V21.3917ZM22 15.3333C22.9669 15.3333 23.9122 15.6461 24.7161 16.2322C25.5201 16.8182 26.1467 17.6511 26.5168 18.6257C26.8868 19.6002 26.9836 20.6726 26.795 21.7071C26.6063 22.7417 26.1407 23.692 25.457 24.4379C24.7732 25.1838 23.9021 25.6917 22.9538 25.8975C22.0054 26.1033 21.0224 25.9977 20.1291 25.594C19.2358 25.1904 18.4722 24.5068 17.935 23.6297C17.3978 22.7526 17.1111 21.7215 17.1111 20.6667C17.1125 19.2527 17.6281 17.897 18.5446 16.8971C19.4611 15.8973 20.7038 15.3349 22 15.3333V15.3333ZM22 28.6667C17.8994 28.6667 14.1526 26.1121 12.2222 22C13.3079 19.675 15.044 17.7875 17.1791 16.6113C16.382 17.7371 15.8889 19.1321 15.8889 20.6667C15.8889 22.4348 16.5327 24.1305 17.6788 25.3807C18.8248 26.631 20.3792 27.3333 22 27.3333C23.6208 27.3333 25.1752 26.631 26.3212 25.3807C27.4673 24.1305 28.1111 22.4348 28.1111 20.6667C28.1111 19.1321 27.618 17.7371 26.8209 16.6113C28.956 17.7875 30.6921 19.675 31.7778 22C29.8478 26.1121 26.1006 28.6667 22 28.6667Z" fill="white"/>
</svg>
