<svg width="40" height="40" viewBox="0 0 40 40" fill="none" xmlns="http://www.w3.org/2000/svg">
<path d="M39 20C39 30.4934 30.4934 39 20 39C9.50659 39 1 30.4934 1 20C1 9.50659 9.50659 1 20 1C30.4934 1 39 9.50659 39 20Z" stroke="#639942" stroke-width="2"/>
<path d="M27.625 14.5H26.25C26.125 13 25.625 11.5 24.625 10.375H27.625C28.25 10.375 28.75 9.875 28.75 9.25C28.75 8.625 28.25 8.125 27.625 8.125L19.5 8.25H14.875H12.375C11.75 8.25 11.25 8.75 11.25 9.375C11.25 10 11.75 10.5 12.375 10.5H14.875H19.5C21.875 10.5 23.75 12.375 23.875 14.625L12.375 14.75C11.75 14.625 11.25 15 11.25 15.75C11.25 16.5 11.75 16.875 12.375 16.875L23.875 16.75C23.625 18.875 21.75 20.375 19.625 20.5H15C14.625 20.5 14.25 20.75 14 21.125C13.75 21.5 13.875 22 14.125 22.375L22 34C22.25 34.375 22.625 34.5 23 34.5C23.25 34.5 23.5 34.375 23.625 34.375C24.25 34 24.25 33.375 24 32.75L17.375 22.875H19.875C23.375 22.875 26.25 20.125 26.625 16.75H28C28.625 16.75 29.125 16.25 29.125 15.625C28.875 14.875 28.25 14.5 27.625 14.5Z" fill="#639942"/>
</svg>
