<svg width="300" height="300" viewBox="0 0 300 300" fill="none" xmlns="http://www.w3.org/2000/svg">
<path d="M150 32.8125C118.92 32.8125 89.1128 45.159 67.1359 67.1359C45.159 89.1128 32.8125 118.92 32.8125 150C32.8125 181.08 45.159 210.887 67.1359 232.864C89.1128 254.841 118.92 267.188 150 267.188C181.08 267.188 210.887 254.841 232.864 232.864C254.841 210.887 267.188 181.08 267.188 150C267.188 118.92 254.841 89.1128 232.864 67.1359C210.887 45.159 181.08 32.8125 150 32.8125V32.8125Z" fill="white"/>
<path d="M150 192.188C126.797 192.188 107.812 173.203 107.812 150C107.812 126.797 126.797 107.812 150 107.812C173.203 107.812 192.188 126.797 192.188 150C192.188 173.203 173.203 192.188 150 192.188ZM150 121.875C134.531 121.875 121.875 134.531 121.875 150C121.875 165.469 134.531 178.125 150 178.125C165.469 178.125 178.125 165.469 178.125 150C178.125 134.531 165.469 121.875 150 121.875Z" fill="#659941"/>
<path d="M253.125 212.813C251.953 212.813 250.781 212.578 249.844 211.875C246.328 210 245.156 205.781 247.031 202.266C255.469 186.563 260.156 168.281 260.156 150C260.156 89.2969 210.703 39.8438 150 39.8438C131.484 39.8438 113.203 44.5312 97.0313 53.4375C93.5156 55.3125 89.2969 54.1406 87.4219 50.625C85.5469 47.1094 86.7188 42.8906 90.2344 41.0156C108.516 31.1719 129.141 25.7812 150 25.7812C218.438 25.7812 274.219 81.5625 274.219 150C274.219 170.625 269.062 191.25 259.219 209.297C258.047 211.641 255.469 212.813 253.125 212.813ZM150 274.219C81.5625 274.219 25.7812 218.438 25.7812 150C25.7812 129.375 30.9375 108.75 40.7812 90.7031C42.6562 87.1875 46.875 86.0156 50.3906 87.8906C53.9062 89.7656 55.0781 93.9844 53.2031 97.5C44.5313 113.437 39.8438 131.719 39.8438 150C39.8438 210.703 89.2969 260.156 150 260.156C179.531 260.156 207.187 248.672 227.812 227.812C230.625 225 235.078 225 237.656 227.812C240.469 230.625 240.469 235.078 237.656 237.656C214.453 261.328 183.281 274.219 150 274.219ZM276.562 283.594C276.094 283.594 275.625 283.594 275.156 283.359C274.688 283.359 274.219 283.125 273.75 282.891C273.281 282.656 273.047 282.422 272.578 282.188C272.109 281.953 271.875 281.719 271.406 281.25C270 279.844 269.297 278.203 269.297 276.328C269.297 275.859 269.297 275.391 269.531 274.922C269.531 274.453 269.766 273.984 270 273.516C270.234 273.047 270.469 272.812 270.703 272.344C270.938 271.875 271.172 271.641 271.641 271.172C274.219 268.594 278.906 268.594 281.484 271.172C281.719 271.406 282.187 271.875 282.422 272.344C282.656 272.812 282.891 273.047 283.125 273.516C283.359 273.984 283.359 274.453 283.594 274.922C283.594 275.391 283.828 275.859 283.828 276.328C283.828 278.203 283.125 280.078 281.719 281.25C281.484 281.484 281.016 281.953 280.547 282.188C280.078 282.422 279.844 282.656 279.375 282.891C278.906 283.125 278.437 283.125 277.969 283.359C277.5 283.594 277.031 283.594 276.562 283.594Z" fill="#444B54"/>
<path d="M253.125 260.156C251.25 260.156 249.609 259.453 248.203 258.047L18.5156 28.3594C15.7031 25.7813 15.7031 21.0938 18.5156 18.5156C21.3281 15.7031 25.7813 15.7031 28.3594 18.5156L258.047 248.203C260.859 251.016 260.859 255.469 258.047 258.047C256.641 259.453 255 260.156 253.125 260.156Z" fill="#444B54"/>
</svg>
